<svg id="Livello_1" data-name="Livello 1" xmlns="http://www.w3.org/2000/svg" viewBox="0 0 353.22 89.59"><defs><style>.cls-1{fill:#e52213;}</style></defs><path class="cls-1" d="M39.46,20.39a33.55,33.55,0,0,1-.56,6,25,25,0,0,1-1.73,5.67,18.25,18.25,0,0,1-3.12,4.81,14.66,14.66,0,0,1-4.59,3.39V41a15.27,15.27,0,0,1,4.48,1.76,11.69,11.69,0,0,1,3.69,3.48,18,18,0,0,1,2.51,5.57,29.64,29.64,0,0,1,.92,7.93,31.11,31.11,0,0,1-1.85,11A24.8,24.8,0,0,1,27,84.43a31.22,31.22,0,0,1-8.76,2.95L14.73,88c-1.44.26-3,.49-4.67.68s-3.38.34-5.15.43A26,26,0,0,1,0,89V2.38A74.36,74.36,0,0,1,8.05,1.05,82.73,82.73,0,0,1,17.58.48a41.17,41.17,0,0,1,8.34.83,17.69,17.69,0,0,1,7,3A15.2,15.2,0,0,1,37.7,10.4,24,24,0,0,1,39.46,20.39ZM15.27,37.77a20.57,20.57,0,0,0,2.51-.38,18.72,18.72,0,0,0,2.32-.59A13.52,13.52,0,0,0,25,32.15a14,14,0,0,0,2-7.83,17,17,0,0,0-.68-5.2,8.38,8.38,0,0,0-1.87-3.32,6.54,6.54,0,0,0-2.81-1.71,11.12,11.12,0,0,0-3.51-.45,23.9,23.9,0,0,0-5.72.65c0,9.49,0,14.23,0,23.71Zm3.31,36.41A10.15,10.15,0,0,0,25.38,70c1.77-2.39,2.66-5.61,2.67-9.72a17,17,0,0,0-.88-6.12,7.49,7.49,0,0,0-2.36-3.32,6.5,6.5,0,0,0-3.39-1.27,21.35,21.35,0,0,0-4,0l-5,.52c0,9.73,0,14.59,0,24.32a8.67,8.67,0,0,0,2.71.12C16.37,74.46,17.53,74.34,18.58,74.18Z"/><path class="cls-1" d="M46.71,41.61c0-10.43,1-21.87,6.09-31.09C56.71,3.47,63,0,71.2,0a21.29,21.29,0,0,1,11,2.76,21.17,21.17,0,0,1,7.58,7.79A39.07,39.07,0,0,1,94.2,22.74a71.51,71.51,0,0,1,1.39,16c-.31,9.7-1,20.42-6.25,29.32A23.59,23.59,0,0,1,71,80c-4.35.51-8,0-11.1-1.46a18,18,0,0,1-7.53-7.27,38,38,0,0,1-4.3-12.58A98.78,98.78,0,0,1,46.71,41.61Zm13-.91a98.25,98.25,0,0,0,.56,11,34.89,34.89,0,0,0,2,8.57,13.78,13.78,0,0,0,3.48,5.43A6.58,6.58,0,0,0,71,67.23c3.82-.38,6.69-2.8,8.61-7.23s2.89-11.29,2.92-20.66A86,86,0,0,0,82,28.93a37.32,37.32,0,0,0-1.9-8.49,14.81,14.81,0,0,0-3.49-5.67,7,7,0,0,0-5.43-2C60.18,13.68,59.74,31.88,59.74,40.7Z"/><path class="cls-1" d="M101.32,38.44c.29-9.43.83-20.09,6.09-28.68C111.42,3.22,117.57,0,125.8,0a22.31,22.31,0,0,1,11.06,2.61,20.9,20.9,0,0,1,7.6,7.44,36.43,36.43,0,0,1,4.38,11.69A86.32,86.32,0,0,1,150.25,37c.19,8.47-1.39,20.22-6.21,27.75-4.14,6.46-10.26,9.89-18.38,10.36a21.53,21.53,0,0,1-11.13-2A19,19,0,0,1,107,66.08a35.16,35.16,0,0,1-4.32-11.83A71.78,71.78,0,0,1,101.32,38.44Zm13-.5a88,88,0,0,0,.57,10.24,32,32,0,0,0,2,8.07,13.78,13.78,0,0,0,3.5,5.22,7.19,7.19,0,0,0,5.29,1.7q5.74-.27,8.62-6.43c1.92-4.11,2.89-10.58,2.9-19.46a77.31,77.31,0,0,0-.58-9.87,34.43,34.43,0,0,0-1.91-8.07,14.1,14.1,0,0,0-3.5-5.41,7.39,7.39,0,0,0-5.43-2C115,12.64,114.36,29.44,114.36,37.94Z"/><path class="cls-1" d="M194.39,72.44q-18.42-.36-36.85,0l.06-71H170q0,29.57,0,59.13c9.74-.06,14.61,0,24.35.12C194.38,65.38,194.39,67.73,194.39,72.44Z"/><path class="cls-1" d="M199.47,1.42l34.57,0c0,4.82,0,7.23,0,12-8.85-.1-13.28-.14-22.13-.21l0,18.6c8.14.14,12.22.23,20.36.45,0,4.81,0,7.21,0,12-8.15-.3-12.23-.42-20.38-.62Q212,58.36,212,73c-5-.2-7.49-.28-12.48-.4Q199.51,37,199.47,1.42Z"/><path class="cls-1" d="M277.79,77.93Q259.43,75.88,241,74.56q-.09-36.56-.17-73.1l12.44,0q.08,30.88.16,61.78c9.72.69,14.59,1.09,24.3,2Z"/><path class="cls-1" d="M283.8,1.54l12.45,0q.09,39.33.19,78.64c-5-.66-7.46-1-12.43-1.56Z"/><path class="cls-1" d="M319.33,41.9Q311.79,21.7,304,1.59l15,0c3.21,9.37,4.82,14.12,8,23.78.76,3.65,1.13,5.48,1.89,9.16.7-3.58,1.06-5.37,1.76-9,3.34-9.4,5-14.18,8.36-23.91l13.43.05Q344.7,22.2,336.67,42.52c5.7,15.62,11.18,31.32,16.55,47.07-5.77-1.14-8.66-1.69-14.44-2.73q-4.54-13.68-9.28-27.29c-.83-3.82-1.25-5.73-2.08-9.52-.78,3.63-1.17,5.44-1.95,9-3.69,9.76-5.54,14.55-9.22,24-5.48-.85-8.22-1.25-13.7-2Q311.09,61.54,319.33,41.9Z"/></svg>