<svg id="Livello_1" data-name="Livello 1" xmlns="http://www.w3.org/2000/svg" viewBox="0 0 353.22 513"><defs><style>.cls-1{fill:#e52213;}</style></defs><path class="cls-1" d="M79.93,199.3a24,24,0,0,1-.4,4.23,17.11,17.11,0,0,1-1.22,4,13,13,0,0,1-2.2,3.39,10.41,10.41,0,0,1-3.23,2.39v.52A10.62,10.62,0,0,1,76,215.07a8.33,8.33,0,0,1,2.6,2.45,12.9,12.9,0,0,1,1.77,3.93,21,21,0,0,1,.64,5.59,21.77,21.77,0,0,1-1.3,7.75,17.48,17.48,0,0,1-8.61,9.65A21.71,21.71,0,0,1,65,246.52l-2.48.44c-1,.18-2.11.35-3.29.48s-2.38.24-3.63.3a17.41,17.41,0,0,1-3.46-.08V186.6a54.49,54.49,0,0,1,5.67-.94,60.43,60.43,0,0,1,6.72-.4,29,29,0,0,1,5.88.59A12.62,12.62,0,0,1,75.32,188a10.85,10.85,0,0,1,3.37,4.3A17,17,0,0,1,79.93,199.3ZM62.87,211.55a18.6,18.6,0,0,0,3.41-.68,9.52,9.52,0,0,0,3.45-3.28,9.74,9.74,0,0,0,1.41-5.52,12,12,0,0,0-.48-3.67,5.9,5.9,0,0,0-1.31-2.34,4.58,4.58,0,0,0-2-1.2,7.63,7.63,0,0,0-2.47-.32,16.56,16.56,0,0,0-4,.46v16.71Zm2.34,25.67A7.16,7.16,0,0,0,70,234.27a11.21,11.21,0,0,0,1.88-6.85,12,12,0,0,0-.62-4.32,5.31,5.31,0,0,0-1.66-2.34,4.6,4.6,0,0,0-2.39-.89,14.76,14.76,0,0,0-2.82,0l-3.52.37v17.14a5.82,5.82,0,0,0,1.91.08C63.65,237.41,64.47,237.33,65.21,237.22Z"/><path class="cls-1" d="M85,214.26c0-7.36.7-15.42,4.29-21.92,2.76-5,7.19-7.42,13-7.42a15.06,15.06,0,0,1,7.76,2,14.88,14.88,0,0,1,5.34,5.49,27.75,27.75,0,0,1,3.12,8.6,51.37,51.37,0,0,1,1,11.27c-.22,6.84-.71,14.4-4.41,20.67a16.64,16.64,0,0,1-12.93,8.42,14.1,14.1,0,0,1-7.82-1A12.66,12.66,0,0,1,89,235.17a26.67,26.67,0,0,1-3-8.87A69.43,69.43,0,0,1,85,214.26Zm9.16-.64a69.24,69.24,0,0,0,.4,7.75,24,24,0,0,0,1.41,6,9.65,9.65,0,0,0,2.45,3.83,4.65,4.65,0,0,0,3.7,1.08c2.69-.27,4.72-2,6.07-5.1s2-8,2.06-14.56a62.11,62.11,0,0,0-.37-7.34,27.33,27.33,0,0,0-1.34-6,10.52,10.52,0,0,0-2.46-4,4.93,4.93,0,0,0-3.83-1.41c-7.76.64-8.07,13.47-8.07,19.69Z"/><path class="cls-1" d="M123.53,212c.21-6.64.59-14.16,4.3-20.22,2.82-4.61,7.16-6.88,13-6.88a15.8,15.8,0,0,1,7.8,1.84A14.82,14.82,0,0,1,154,192a25.67,25.67,0,0,1,3.08,8.24A60.68,60.68,0,0,1,158,211c.13,6-1,14.25-4.38,19.56-2.92,4.55-7.23,7-13,7.3a15.14,15.14,0,0,1-7.84-1.41,13.39,13.39,0,0,1-5.31-5,24.93,24.93,0,0,1-3.05-8.34A50.88,50.88,0,0,1,123.53,212Zm9.17-.35a62.27,62.27,0,0,0,.4,7.22,22.8,22.8,0,0,0,1.41,5.69,9.69,9.69,0,0,0,2.47,3.68,5.1,5.1,0,0,0,3.73,1.2c2.69-.13,4.72-1.64,6.07-4.54s2-7.46,2.05-13.72a55.75,55.75,0,0,0-.41-6.95,24.07,24.07,0,0,0-1.35-5.69,9.94,9.94,0,0,0-2.46-3.82,5.24,5.24,0,0,0-3.83-1.41c-7.6.51-8.05,12.35-8.05,18.34Z"/><path class="cls-1" d="M189.14,236q-13-.26-26,0l0-50.05H172v41.68c6.87,0,10.3,0,17.17.09C189.14,231,189.14,232.67,189.14,236Z"/><path class="cls-1" d="M192.73,185.93h24.36v8.46c-6.23-.08-9.36-.1-15.6-.15v13.11c5.74.1,8.62.16,14.36.32v8.46c-5.75-.22-8.62-.3-14.37-.44q.08,10.38.08,20.7c-3.53-.15-5.28-.2-8.8-.29Q192.76,211,192.73,185.93Z"/><path class="cls-1" d="M247.94,239.86Q235,238.42,222,237.49q-.06-25.78-.12-51.54h8.77q.06,21.78.11,43.56c6.86.48,10.29.76,17.13,1.41Z"/><path class="cls-1" d="M252.17,186H261q.06,27.72.13,55.44c-3.52-.47-5.26-.71-8.76-1.1Z"/><path class="cls-1" d="M277.22,214.46q-5.31-14.24-10.81-28.41H277c2.26,6.6,3.39,9.95,5.64,16.76.53,2.57.79,3.86,1.33,6.46.49-2.53.75-3.79,1.24-6.35,2.35-6.62,3.52-10,5.89-16.85l9.47,0q-5.46,14.47-11.12,28.8c4,11,7.88,22.08,11.67,33.18-4.07-.8-6.1-1.19-10.18-1.92q-3.19-9.65-6.54-19.24c-.59-2.69-.88-4-1.47-6.71-.55,2.56-.82,3.83-1.37,6.34-2.6,6.88-3.91,10.26-6.5,16.92-3.86-.6-5.8-.88-9.66-1.41Q271.4,228.3,277.22,214.46Z"/></svg>